<mxfile host="app.diagrams.net" modified="2024-01-01T18:04:07.204Z" agent="Mozilla/5.0 (Windows NT 10.0; Win64; x64) AppleWebKit/537.36 (KHTML, like Gecko) Chrome/120.0.0.0 Safari/537.36" version="22.1.16" etag="6mjr0jRw7M_vaiz7cf67" type="github">
  <diagram name="Page-1" id="9NqQRNnx_wIztJ5b9OVw">
    <mxGraphModel>
      <root>
        <mxCell id="0" />
        <mxCell id="1" parent="0" />
      </root>
    </mxGraphModel>
  </diagram>
</mxfile>
